<svg width="43" height="44" viewBox="0 0 43 44" fill="none" xmlns="http://www.w3.org/2000/svg">
<path d="M23.1301 6.26079C23.1301 4.14869 25.6986 3.10773 27.1691 4.62391L40.7179 18.5945C41.6103 19.5146 42.1093 20.7459 42.1093 22.0276V38.1984C42.1093 40.3105 39.5407 41.3515 38.0703 39.8353L24.5214 25.8647C23.6291 24.9447 23.1301 23.7133 23.1301 22.4316V6.26079Z" fill="#9E97FF"/>
<path d="M11.368 5.80157C11.368 3.68948 13.9366 2.64852 15.407 4.1647L28.756 17.9291C29.7765 18.9814 30.3472 20.3897 30.3472 21.8556V37.7392C30.3472 39.8513 27.7787 40.8923 26.3082 39.3761L12.7594 25.4055C11.867 24.4854 11.368 23.2541 11.368 21.9724V5.80157Z" fill="#4CBFFF"/>
<path d="M0 6.26079C0 4.14869 2.56858 3.10773 4.039 4.62391L17.5879 18.5945C18.4802 19.5146 18.9792 20.7459 18.9792 22.0276V38.1984C18.9792 40.3105 16.4107 41.3515 14.9402 39.8353L1.39134 25.8647C0.499026 24.9447 0 23.7133 0 22.4316V6.26079Z" fill="#4A3AFF"/>
</svg>
