<svg width="676" height="829" viewBox="0 0 676 829" fill="none" xmlns="http://www.w3.org/2000/svg">
<path d="M0 38.454C0 24.9957 0 18.2665 2.62044 13.129C4.9254 8.60995 8.60302 4.9375 13.1253 2.6389C18.2665 0.0256837 24.9957 0.0351452 38.454 0.0540683L370.154 0.520456C383.578 0.539331 390.29 0.548768 395.417 3.16723C399.926 5.47054 403.592 9.14115 405.889 13.6539C408.5 18.7841 408.5 25.4962 408.5 38.9204V41.4C408.5 50.3608 408.5 54.8413 410.244 58.2638C411.778 61.2744 414.226 63.7221 417.236 65.2561C420.659 67 425.139 67 434.1 67H637.6C651.041 67 657.762 67 662.896 69.6158C667.412 71.9168 671.083 75.5883 673.384 80.1042C676 85.2381 676 91.9587 676 105.4V790.6C676 804.041 676 810.762 673.384 815.896C671.083 820.412 667.412 824.083 662.896 826.384C657.762 829 651.041 829 637.6 829H38.4C24.9587 829 18.2381 829 13.1042 826.384C8.58834 824.083 4.9168 820.412 2.61584 815.896C0 810.762 0 804.041 0 790.6V38.454Z" fill="#598DFF"/>
</svg>
